# Blender 3.5.1
# www.blender.org
mtllib Arrow.mtl
o Cube
v -0.500000 -0.500000 -3.000000
v -0.500000 -0.500000 3.000000
v 0.500000 -0.500000 -3.000000
v 0.500000 -0.500000 3.000000
v -0.500000 0.500000 -3.000000
v -0.500000 0.500000 3.000000
v 0.500000 0.500000 -3.000000
v 0.500000 0.500000 3.000000
v -0.050000 -0.050000 -5.000000
v 0.050000 -0.050000 -5.000000
v -0.050000 0.050000 -5.000000
v 0.050000 0.050000 -5.000000
vn -0.9756 -0.0000 -0.2195
vn 1.0000 -0.0000 -0.0000
vn -0.0000 1.0000 -0.0000
vn -0.0000 -0.0000 1.0000
vn -0.0000 -1.0000 -0.0000
vn -1.0000 -0.0000 -0.0000
vn -0.0000 -0.0000 -1.0000
vn 0.9756 -0.0000 -0.2195
vn -0.0000 0.9756 -0.2195
vn -0.0000 -0.9756 -0.2195
vt 0.625000 0.500000
vt 0.375000 0.500000
vt 0.625000 0.750000
vt 0.375000 0.750000
vt 0.625000 0.250000
vt 0.125000 0.500000
vt 0.375000 0.250000
vt 0.625000 1.000000
vt 0.625000 0.000000
vt 0.375000 1.000000
vt 0.375000 0.000000
vt 0.125000 0.750000
vt 0.625000 0.500000
vt 0.625000 0.750000
vt 0.875000 0.500000
vt 0.625000 0.250000
vt 0.875000 0.750000
vt 0.625000 1.000000
vt 0.625000 0.000000
s 0
usemtl Material
f 1/1/1 5/5/1 11/16/1 9/13/1
f 4/4/2 3/3/2 7/8/2 8/10/2
f 8/11/3 7/9/3 5/5/3 6/7/3
f 6/6/4 2/2/4 4/4/4 8/12/4
f 2/2/5 1/1/5 3/3/5 4/4/5
f 6/7/6 5/5/6 1/1/6 2/2/6
f 9/13/7 11/15/7 12/17/7 10/14/7
f 7/8/8 3/3/8 10/14/8 12/18/8
f 5/5/9 7/9/9 12/19/9 11/16/9
f 3/3/10 1/1/10 9/13/10 10/14/10
